<svg width="17" height="32" viewBox="0 0 17 32" fill="none" xmlns="http://www.w3.org/2000/svg">
<path d="M1.39066 29.724C1.26332 29.847 1.16174 29.9941 1.09186 30.1568C1.02198 30.3194 0.985201 30.4944 0.983662 30.6714C0.982124 30.8485 1.01586 31.024 1.0829 31.1879C1.14994 31.3518 1.24895 31.5006 1.37414 31.6258C1.49933 31.751 1.6482 31.85 1.81206 31.9171C1.97592 31.9841 2.15149 32.0178 2.32853 32.0163C2.50557 32.0148 2.68053 31.978 2.8432 31.9081C3.00587 31.8382 3.153 31.7367 3.276 31.6093L14.172 20.7133C15.4202 19.4623 16.1212 17.7672 16.1212 16C16.1212 14.2328 15.4202 12.5377 14.172 11.2866L3.276 0.39064C3.02453 0.147762 2.68772 0.0133699 2.33813 0.0164078C1.98853 0.0194457 1.65412 0.159671 1.4069 0.406882C1.15969 0.654093 1.01947 0.988509 1.01643 1.33811C1.01339 1.6877 1.14779 2.0245 1.39066 2.27597L12.2867 13.172C13.0365 13.9221 13.4578 14.9393 13.4578 16C13.4578 17.0606 13.0365 18.0779 12.2867 18.828L1.39066 29.724Z" fill="#2A6CEA"/>
</svg>
